HIERARCHY
ROOT root
{
	OFFSET	0	13.1	24.9
	CHANNELS 6  Xposition Yposition Zposition Xrotation Yrotation Zrotation
	JOINT spine_1
	{
		OFFSET	0	9.99999	0
		CHANNELS 3  Xrotation Yrotation Zrotation
		JOINT spine_2
		{
			OFFSET	0	112	-10
			CHANNELS 3  Xrotation Yrotation Zrotation
			JOINT spine_3
			{
				OFFSET	0	206.5	19.3
				CHANNELS 3  Xrotation Yrotation Zrotation
				JOINT spine_4
				{
					OFFSET	0	110.4	14.6
					CHANNELS 3  Xrotation Yrotation Zrotation
					JOINT neck_1
					{
						OFFSET	0	71.8	-50.3
						CHANNELS 3  Xrotation Yrotation Zrotation
						JOINT neck_2
						{
							OFFSET	0	86.2	-25.8
							CHANNELS 3  Xrotation Yrotation Zrotation
							JOINT head_ee
							{
								OFFSET	0	179.8	-8.7
								CHANNELS 3  Xrotation Yrotation Zrotation
								End Site
								{
									OFFSET	1	0	0
								}
							}
						}
					}
					JOINT left_clavicle
					{
						OFFSET	-43.2	22.4	-70.8
						CHANNELS 3  Xrotation Yrotation Zrotation
						JOINT left_shoulder
						{
							OFFSET	-93.9	-5.79999	48.7
							CHANNELS 3  Xrotation Yrotation Zrotation
							JOINT left_elbow
							{
								OFFSET	-291.4	-30.8	15.2
								CHANNELS 3  Xrotation Yrotation Zrotation
								JOINT left_lowarm_twist
								{
									OFFSET	-110.7	-3.89999	13.6
									CHANNELS 3  Xrotation Yrotation Zrotation
									JOINT left_hand
									{
										OFFSET	-110.7	-3.89999	13.6
										CHANNELS 3  Xrotation Yrotation Zrotation
										JOINT left_ee
										{
											OFFSET	-80.8	-5.10001	12.1
											CHANNELS 3  Xrotation Yrotation Zrotation
											End Site
											{
												OFFSET	1	0	0
											}
										}
									}
								}
							}
						}
					}
					JOINT right_clavicle
					{
						OFFSET	43.2	22.4	-70.8
						CHANNELS 3  Xrotation Yrotation Zrotation
						JOINT right_shoulder
						{
							OFFSET	93.9	-5.79999	48.7
							CHANNELS 3  Xrotation Yrotation Zrotation
							JOINT right_elbow
							{
								OFFSET	291.4	-30.8	15.2
								CHANNELS 3  Xrotation Yrotation Zrotation
								JOINT right_lowarm_twist
								{
									OFFSET	110.7	-3.89999	13.6
									CHANNELS 3  Xrotation Yrotation Zrotation
									JOINT right_hand
									{
										OFFSET	110.7	-3.89999	13.6
										CHANNELS 3  Xrotation Yrotation Zrotation
										JOINT right_ee
										{
											OFFSET	80.8	-5.10001	12.1
											CHANNELS 3  Xrotation Yrotation Zrotation
											End Site
											{
												OFFSET	1	0	0
											}
										}
									}
								}
							}
						}
					}
				}
			}
		}
	}
	JOINT left_hip
	{
		OFFSET	-82.8	-127.5	0.300001
		CHANNELS 3  Xrotation Yrotation Zrotation
		JOINT left_knee
		{
			OFFSET	-28.2	-396.7	2.2
			CHANNELS 3  Xrotation Yrotation Zrotation
			JOINT left_ankle
			{
				OFFSET	-11.7	-411.3	35.4
				CHANNELS 3  Xrotation Yrotation Zrotation
				JOINT left_toes
				{
					OFFSET	0	-60	-88.6
					CHANNELS 3  Xrotation Yrotation Zrotation
					JOINT left_foot_ee
					{
						OFFSET	-22.5	-16.5	-42.2
						CHANNELS 3  Xrotation Yrotation Zrotation
						End Site
						{
							OFFSET	1	0	0
						}
					}
				}
			}
		}
	}
	JOINT right_hip
	{
		OFFSET	82.8	-127.5	0.300001
		CHANNELS 3  Xrotation Yrotation Zrotation
		JOINT right_knee
		{
			OFFSET	28.2	-396.7	2.2
			CHANNELS 3  Xrotation Yrotation Zrotation
			JOINT right_ankle
			{
				OFFSET	11.7	-411.3	35.4
				CHANNELS 3  Xrotation Yrotation Zrotation
				JOINT right_toes
				{
					OFFSET	0	-60	-88.6
					CHANNELS 3  Xrotation Yrotation Zrotation
					JOINT right_foot_ee
					{
						OFFSET	22.5	-16.5	-42.2
						CHANNELS 3  Xrotation Yrotation Zrotation
						End Site
						{
							OFFSET	1	0	0
						}
					}
				}
			}
		}
	}
}
MOTION
Frames: 15
Frame Time: 0.02
3096.03 730.177 -567.758 158.874 -67.1868 162.707 -2.49198 0.177766 -1.64121 -2.49052 0.281826 -1.62658 -2.4974 0.683715 -1.5026 -2.50029 0.43786 -1.59169 1.41496 6.59255 3.39916 1.48851 8.79272 4.29724 -0.0 0.0 -0.0 0.646111 17.1719 3.01097 -12.8895 -28.4959 77.9794 0.201723 -5.70664 0.0100541 -30.4838 -2.00056 3.29689 -0.341055 11.1344 2.42735 -0.0 0.0 -0.0 -1.71176 7.15898 4.35289 17.4418 17.1003 -76.9749 3.10847 56.9875 -1.68761 24.6634 -0.200245 3.11993 -0.0310982 -21.9366 -8.61701 0.0 0.0 0.0 10.7054 21.7384 -15.7677 -38.1211 -0.351579 5.73344 38.3732 13.2072 -4.7606 -33.1426 0.0 0.0 -0.0 0.0 -0.0 10.2332 26.8096 -11.0056 -12.478 -0.309419 -1.88616 22.2003 7.64706 3.09896 -39.3926 0.0 0.0 0.0 0.0 0.0 
3101.79 731.832 -566.955 158.277 -68.6419 161.85 -2.49022 -0.166727 -1.43447 -2.48908 -0.0751196 -1.44217 -2.48588 0.291342 -1.41444 -2.48867 0.0643264 -1.44269 1.87636 7.6464 3.66211 1.9777 10.3695 4.65557 -0.0 0.0 -0.0 0.405597 18.1395 2.73863 -13.5154 -28.1095 77.6342 0.204294 -5.77886 0.0103113 -30.3364 -1.98687 3.28385 -0.152971 11.9572 3.9606 -0.0 0.0 -0.0 -1.48018 6.38921 3.77074 17.5712 18.5621 -76.5357 3.27635 58.3479 -1.82948 25.2071 -0.18946 3.18855 0.354923 -17.6504 -9.35184 0.0 0.0 0.0 12.0787 23.302 -16.0346 -32.2821 -0.0500904 4.88898 37.7888 13.377 -4.70823 -33.3598 0.0 0.0 -0.0 0.0 -0.0 8.84531 26.7936 -10.1696 -10.4642 -0.287417 -1.57796 21.313 4.60327 2.95228 -40.0958 0.0 0.0 0.0 0.0 0.0 
3109.47 728.547 -563.436 157.817 -67.9658 162.172 -2.45185 -0.257155 -1.3977 -2.45078 -0.167704 -1.41123 -2.44531 0.192919 -1.408 -2.44808 -0.0318468 -1.4208 0.620905 7.01968 3.33099 0.701024 9.70805 4.29178 -0.0 0.0 -0.0 0.136961 18.9741 2.42173 -14.3942 -27.4278 77.5391 0.208316 -5.89184 0.0107202 -30.5532 -2.00701 3.30301 0.0460184 12.1842 5.31469 -0.0 0.0 -0.0 -1.28872 6.32105 3.37089 17.5685 19.5412 -76.6586 3.70263 61.3845 -2.19828 24.6479 -0.200543 3.11797 0.226893 -18.2637 -8.79428 0.0 0.0 0.0 16.2367 26.9723 -19.1728 -29.7593 0.0532109 4.51563 34.0586 15.9677 -4.37595 -33.6767 0.0 0.0 -0.0 0.0 -0.0 7.54577 26.3449 -10.9757 -9.60034 -0.274662 -1.44603 22.7877 5.54194 3.14335 -39.7821 0.0 0.0 0.0 0.0 0.0 
3114.75 728.965 -561.953 158.82 -67.2838 163.256 -2.54391 -0.134637 -1.11975 -2.54322 -0.0631159 -1.12605 -2.54117 0.224213 -1.1053 -2.54287 0.0468481 -1.12684 0.608776 7.14961 2.66832 0.693466 10.4889 3.58714 -0.0 0.0 -0.0 -0.0206242 19.3879 2.23278 -15.2589 -27.9047 77.0879 0.255223 -7.20584 0.0160704 -30.5351 -2.00533 3.30142 0.268831 12.1449 6.71584 -0.0 0.0 -0.0 -1.44326 5.72182 3.60261 16.4131 20.1687 -76.7246 4.48814 65.7612 -2.90222 24.9542 -0.194558 3.15665 0.390731 -16.494 -9.14401 0.0 0.0 0.0 13.7579 25.2156 -17.3969 -25.5987 0.187331 3.89133 35.3904 16.1018 -4.51227 -33.7626 0.0 0.0 -0.0 0.0 -0.0 6.90166 25.9492 -11.401 -7.23249 -0.229515 -1.08551 21.5242 2.03958 2.95428 -40.1228 0.0 0.0 0.0 0.0 0.0 
3122.85 730.245 -564.526 159.439 -67.5253 164.3 -2.46673 -0.0601469 -1.25294 -2.46585 0.0196963 -1.25423 -2.46539 0.335223 -1.20877 -2.4674 0.14013 -1.24653 1.40958 7.5891 3.56133 1.50743 10.4194 4.55972 -0.0 0.0 -0.0 -0.518917 20.0197 1.57312 -14.9061 -28.0727 78.3076 0.269154 -7.59469 0.0178647 -30.4089 -1.9936 3.29027 0.689362 13.1117 9.76601 -0.0 0.0 -0.0 -1.3122 5.42988 3.29636 14.3663 20.5322 -75.049 4.6894 66.6864 -3.0864 25.1938 -0.189732 3.18688 0.669881 -12.4934 -9.41005 0.0 0.0 0.0 10.8288 25.5829 -16.0628 -19.2651 0.303659 2.92688 32.9484 17.4327 -4.28219 -34.4338 0.0 0.0 -0.0 0.0 -0.0 5.41161 23.8951 -10.8964 -5.46328 -0.186074 -0.817489 22.5786 -0.18386 3.06606 -39.8019 0.0 0.0 0.0 0.0 0.0 
3136.27 732.395 -566.567 160.67 -67.2446 165.965 -2.30464 0.00126797 -1.35386 -2.30362 0.087407 -1.35104 -2.30476 0.421569 -1.28656 -2.30701 0.213109 -1.33699 2.95932 7.00358 3.33238 3.04766 9.37218 4.20493 -0.0 0.0 -0.0 -1.20249 21.651 0.807188 -14.8282 -28.1895 79.1347 0.353619 -9.93602 0.0307388 -31.612 -2.10643 3.3955 1.05537 15.1773 12.8483 -0.0 0.0 -0.0 -0.864271 5.33036 2.37708 12.0437 18.8375 -74.0989 4.97472 67.8886 -3.34961 24.9416 -0.194808 3.15506 0.847205 -10.0918 -9.64939 0.0 0.0 0.0 8.47172 26.9641 -15.0614 -15.512 0.322086 2.35143 33.8779 19.5693 -4.416 -34.0851 0.0 0.0 -0.0 0.0 -0.0 3.61032 23.7253 -10.7463 -1.8798 -0.0728228 -0.279281 22.3254 -2.97113 3.02188 -39.8288 0.0 0.0 0.0 0.0 0.0 
3147.87 731.969 -566.64 162.255 -65.7586 167.787 -2.10047 0.0975047 -1.39798 -2.0994 0.186256 -1.38895 -2.10311 0.522203 -1.30047 -2.10533 0.310285 -1.3666 5.4054 6.90212 1.99006 5.51543 10.0532 2.5935 -0.0 0.0 -0.0 -1.8202 22.2457 0.0255551 -15.0201 -28.0368 79.6971 0.390603 -10.9512 0.0374431 -32.058 -2.14881 3.43391 1.50698 16.446 16.1677 -0.0 0.0 -0.0 -1.13239 6.24124 3.04172 10.0726 20.671 -73.7234 5.19309 68.7316 -3.55253 24.7189 -0.199173 3.12695 0.950864 -8.66432 -9.78475 0.0 0.0 0.0 6.62374 27.6318 -14.3669 -13.0817 0.313903 1.97868 33.7552 21.173 -4.43528 -35.2941 0.0 0.0 -0.0 0.0 -0.0 1.8961 23.2655 -10.3348 0.0761136 0.00314157 0.0112578 24.4926 -3.53765 3.27668 -39.0949 0.0 0.0 0.0 0.0 0.0 
3158.51 727.912 -568.809 162.568 -66.0458 168.395 -2.02281 0.148419 -1.39548 -2.02176 0.236908 -1.38321 -2.02676 0.568188 -1.2832 -2.02888 0.35842 -1.35681 6.18709 6.43698 2.01034 6.28193 9.15011 2.57238 -0.0 0.0 -0.0 -2.30641 23.0389 -0.517831 -14.24 -27.9473 79.9188 0.397531 -11.1406 0.0387705 -32.6156 -2.20223 3.48147 1.71424 17.2156 17.7494 -0.0 0.0 -0.0 -1.38023 5.15761 3.39634 8.60448 20.7248 -73.1136 5.8297 70.8701 -4.15009 24.6057 -0.201351 3.11264 1.05099 -7.26043 -9.90784 0.0 0.0 0.0 5.2842 28.0926 -13.8181 -10.6001 0.289244 1.59875 33.3925 22.2492 -4.4203 -34.6772 0.0 0.0 -0.0 0.0 -0.0 0.836803 22.8767 -10.1421 2.09245 0.0918046 0.30794 25.105 -5.41262 3.34364 -38.6153 0.0 0.0 0.0 0.0 0.0 
3167.8 728.233 -567.579 163.523 -65.5738 169.29 -1.75598 0.164663 -1.46934 -1.75481 0.257817 -1.45589 -1.76064 0.599991 -1.35135 -1.76298 0.379064 -1.42913 6.25815 7.05657 1.6756 6.3856 10.4922 2.2007 -0.0 0.0 -0.0 -2.64526 23.6012 -0.881768 -14.1357 -28.0331 80.1196 0.432492 -12.0927 0.0458107 -32.8756 -2.22729 3.50347 1.74919 19.5821 18.7028 -0.0 0.0 -0.0 -1.04244 6.56464 2.90171 7.54986 20.9891 -73.1879 4.8962 67.5697 -3.27695 23.638 -0.218808 2.99027 0.895751 -5.72242 -8.2847 0.0 0.0 0.0 4.22397 28.0005 -13.2582 -10.0571 0.281655 1.51577 36.5997 22.2936 -4.7552 -34.78 0.0 0.0 -0.0 0.0 -0.0 -0.0873916 22.5196 -9.85043 2.72714 0.121872 0.400675 28.6913 -6.83292 3.74672 -37.3446 0.0 0.0 0.0 0.0 0.0 
3177.09 731.839 -568.368 165.089 -65.0326 170.916 -1.6441 0.186717 -1.43492 -1.64299 0.277637 -1.42014 -1.64924 0.608091 -1.31307 -1.65143 0.393106 -1.39261 5.20364 7.20433 2.03194 5.32378 10.5591 2.66232 -0.0 0.0 -0.0 -2.87256 23.8119 -1.15217 -13.5242 -27.838 80.0013 0.471857 -13.1565 0.0544147 -33.2473 -2.2633 3.53471 1.87938 20.5108 19.8045 -0.0 0.0 -0.0 -0.836952 7.8882 2.65429 5.28702 21.3299 -72.9251 4.52623 65.9416 -2.93697 22.8947 -0.230812 2.89609 0.87561 -4.95345 -7.84873 0.0 0.0 0.0 3.60677 28.3191 -13.004 -9.84721 0.278511 1.48372 38.0154 22.1316 -4.89192 -34.8596 0.0 0.0 -0.0 0.0 -0.0 -0.715376 22.4515 -9.48157 3.69453 0.169677 0.541381 30.2806 -7.6084 3.91932 -37.0119 0.0 0.0 0.0 0.0 0.0 
3181.47 735.078 -570.641 165.851 -64.6996 171.834 -1.54924 0.165471 -1.50576 -1.54802 0.260941 -1.49218 -1.55409 0.606747 -1.38803 -1.55658 0.379945 -1.46641 5.30895 8.21049 2.51628 5.46144 11.8458 3.25511 -0.0 0.0 -0.0 -2.65294 24.0907 -0.800291 -13.1874 -27.5894 79.8737 0.517589 -14.3809 0.0652998 -32.5849 -2.19927 3.47886 1.6339 22.3806 18.8012 -0.0 0.0 -0.0 -0.575539 8.67514 2.21594 3.50128 21.4974 -72.2526 3.99324 63.1641 -2.45556 22.5715 -0.235652 2.85508 0.832144 -3.93978 -7.1579 0.0 0.0 0.0 3.26595 28.721 -12.7622 -9.46211 0.272437 1.42494 39.0116 22.5794 -5.00055 -35.3429 0.0 0.0 -0.0 0.0 -0.0 -1.3798 21.7458 -9.09456 5.23801 0.250862 0.764184 31.8836 -10.4531 4.09875 -36.3866 0.0 0.0 0.0 0.0 0.0 
3184.64 733.991 -570.425 165.651 -64.7669 171.845 -1.40929 0.119735 -1.57774 -1.40793 0.219875 -1.56693 -1.41312 0.580922 -1.4718 -1.41598 0.341217 -1.54506 3.65532 8.83684 3.53197 3.80689 12.295 4.51505 -0.0 0.0 -0.0 -2.59589 24.1718 -0.707929 -13.2505 -27.4296 78.9484 0.564337 -15.6188 0.0773995 -32.5149 -2.19255 3.47292 1.36912 24.2928 17.7332 -0.0 0.0 -0.0 -0.287827 9.5603 1.72996 3.44816 20.8772 -72.5621 3.49434 59.9701 -2.01666 22.3148 -0.239329 2.8225 0.761608 -3.50606 -6.51534 0.0 0.0 0.0 2.84002 28.8142 -12.7898 -9.48087 0.272742 1.4278 39.5277 21.8705 -5.03082 -35.7676 0.0 0.0 -0.0 0.0 -0.0 -1.6116 21.8917 -9.17405 4.59058 0.216075 0.670988 32.7059 -12.3603 4.19736 -36.2805 0.0 0.0 0.0 0.0 0.0 
3190.19 733.726 -572.9 165.973 -64.3009 172.031 -1.36626 0.0357307 -1.67888 -1.36471 0.142474 -1.6732 -1.36782 0.529309 -1.59368 -1.37126 0.271011 -1.65725 2.44547 9.52258 3.94685 2.61183 13.3405 5.08202 -0.0 0.0 -0.0 -2.46732 23.6134 -0.635974 -12.9568 -27.6516 78.8612 0.599718 -16.5459 0.0872012 -32.1062 -2.15341 3.43804 1.37598 24.4822 17.8293 -0.0 0.0 -0.0 -0.0513518 11.2171 1.43545 2.05144 20.1915 -71.8414 3.0873 56.8085 -1.66988 21.9704 -0.244034 2.77876 0.59176 -3.2453 -5.2814 0.0 0.0 0.0 2.54061 28.9246 -12.2314 -9.51499 0.273294 1.433 40.0078 22.922 -5.10511 -36.0341 0.0 0.0 -0.0 0.0 -0.0 -1.85981 21.9512 -8.92548 4.28848 0.200205 0.627371 33.9743 -13.6349 4.33911 -36.2603 0.0 0.0 0.0 0.0 0.0 
3195.2 731.563 -576.222 165.834 -66.1293 172.004 -1.10433 -0.109542 -1.77188 -1.10258 0.00341064 -1.77526 -1.10144 0.409855 -1.72731 -1.10558 0.131959 -1.77035 1.76373 9.40605 5.0349 1.91738 12.3343 6.30647 -0.0 0.0 -0.0 -2.30426 23.4613 -0.439929 -11.8083 -27.6905 78.044 0.653637 -17.9417 0.103186 -33.1438 -2.25325 3.52604 1.15267 26.1757 16.9901 -0.0 0.0 -0.0 -0.130279 11.9427 1.68613 0.820512 20.2384 -71.6553 2.66384 52.8355 -1.32355 22.1395 -0.241756 2.80024 0.592637 -2.756 -5.08879 0.0 0.0 0.0 2.40597 28.8133 -12.0131 -8.12807 0.248343 1.22165 40.1333 21.2966 -5.07272 -36.1818 0.0 0.0 -0.0 0.0 -0.0 -2.01205 21.0105 -8.67557 3.504 0.160073 0.513731 35.4945 -14.2272 4.49773 -34.6245 0.0 0.0 0.0 0.0 0.0 
3196.38 732.4 -576.772 163.913 -68.0968 170.012 -1.09682 -0.208136 -1.84357 -1.09494 -0.0904235 -1.85307 -1.09054 0.335953 -1.82461 -1.09519 0.0436251 -1.85476 0.89636 9.42782 5.30425 1.04712 12.3063 6.64028 -0.0 0.0 -0.0 -2.24162 23.0492 -0.426341 -10.0521 -27.7687 77.4354 0.758559 -20.5946 0.137818 -34.3232 -2.36865 3.62386 0.867193 27.9599 15.8608 -0.0 0.0 -0.0 0.0856669 13.2181 1.38067 -0.515758 19.5972 -71.7501 2.16682 47.0209 -0.942723 21.9997 -0.243643 2.78249 0.521131 -2.40136 -4.46876 0.0 0.0 0.0 2.02797 28.8416 -11.563 -7.33806 0.231845 1.10154 40.141 20.2842 -5.04828 -36.8153 0.0 0.0 -0.0 0.0 -0.0 -1.78781 21.6344 -8.8609 -0.203862 -0.00834057 -0.0301728 37.7371 -14.429 4.71645 -33.677 0.0 0.0 0.0 0.0 0.0 
